PathFileType	4	(X/Y/Z)	/Users/itak/Documents/Research/Walk-IL/dataset/trc/00314_00010.trc
DataRate	CameraRate	NumFrames	NumMarkers	Units	OrigDataRate	OrigDataStartFrame	OrigNumFrames
100.000000	100.000000	4	55	mm	100.000000	203	543
Frame#	Time	RPSI			LPSI			L3			STRN			T10			C7			CLAV			RBAK			LBAK			LSHO			LUPA			LAEL			LAOL			LWTS			LWPS			LFRA			LIFD			LHPS			LHTS			RSHO			RUPA			RAEL			RAOL			RWTS			RWPS			RFRA			RIFD			RHPS			RBHD			LFHD			RFHD			LBHD			LHIP			RHIP			RASI			LASI			LKNE			LTHI			LANK			LTIP			LTOE			LMT1			LMT5			LHEE			RKNE			RTHI			RANK			RTIP			RTOE			RMT1			RMT5			RHEE			RHTS			*53			*54			
		X1	Y1	Z1	X2	Y2	Z2	X3	Y3	Z3	X4	Y4	Z4	X5	Y5	Z5	X6	Y6	Z6	X7	Y7	Z7	X8	Y8	Z8	X9	Y9	Z9	X10	Y10	Z10	X11	Y11	Z11	X12	Y12	Z12	X13	Y13	Z13	X14	Y14	Z14	X15	Y15	Z15	X16	Y16	Z16	X17	Y17	Z17	X18	Y18	Z18	X19	Y19	Z19	X20	Y20	Z20	X21	Y21	Z21	X22	Y22	Z22	X23	Y23	Z23	X24	Y24	Z24	X25	Y25	Z25	X26	Y26	Z26	X27	Y27	Z27	X28	Y28	Z28	X29	Y29	Z29	X30	Y30	Z30	X31	Y31	Z31	X32	Y32	Z32	X33	Y33	Z33	X34	Y34	Z34	X35	Y35	Z35	X36	Y36	Z36	X37	Y37	Z37	X38	Y38	Z38	X39	Y39	Z39	X40	Y40	Z40	X41	Y41	Z41	X42	Y42	Z42	X43	Y43	Z43	X44	Y44	Z44	X45	Y45	Z45	X46	Y46	Z46	X47	Y47	Z47	X48	Y48	Z48	X49	Y49	Z49	X50	Y50	Z50	X51	Y51	Z51	X52	Y52	Z52	X53	Y53	Z53	X54	Y54	Z54	X55	Y55	Z55	

204	2.03	-786.0194702148438	982.668212890625	-578.9595336914062	-748.11767578125	972.3475952148438	-749.1630859375	-743.7019653320312	1046.156372070312	-677.5524291992188	-491.3890991210938	1211.969360351562	-606.9207153320312	-745.3255615234375	1159.838745117188	-691.1119995117188	-686.9376220703125	1402.123413085938	-689.7022705078125	-545.2835083007812	1315.863037109375	-629.2099609375	-763.1880493164062	1265.151123046875	-643.5471801757812	-667.0665283203125	1366.193969726562	-792.78857421875	-565.2850952148438	1371.306396484375	-811.139404296875	-572.5291748046875	1254.3173828125	-890.8762817382812	-559.9248046875	1053.914794921875	-899.7381591796875	-632.5845336914062	1030.16015625	-856.2199096679688	-408.3172607421875	898.9005737304688	-832.9566040039062	-429.2037658691406	863.8605346679688	-893.0568237304688	-515.4348754882812	964.9531860351562	-902.6101684570312	-304.3616027832031	750.3201293945312	-816.5087280273438	-379.549560546875	791.5081176757812	-879.8506469726562	-336.9304809570312	825.4735717773438	-843.154052734375	-687.0084838867188	1378.2958984375	-520.776123046875	-728.1273193359375	1327.204833984375	-468.6387023925781	-829.7880859375	1081.701904296875	-459.9548034667969	-797.3587646484375	1070.054443359375	-547.7655639648438	-784.2960815429688	837.4213256835938	-441.1764221191406	-865.525146484375	852.9495239257812	-417.9313659667969	-839.1837158203125	1013.785278320312	-438.0572204589844	-837.9953002929688	658.1121215820312	-460.82763671875	-879.3775634765625	739.510009765625	-414.7570190429688	-699.3314208984375	1553.881713867188	-605.9324340820312	-494.8957824707031	1602.36767578125	-636.4357299804688	-534.6669921875	1590.112915039062	-553.4161987304688	-635.2435302734375	1563.463256835938	-736.8045654296875	-667.703857421875	916.2256469726562	-829.126953125	-704.7911376953125	936.3596801757812	-456.2093505859375	-578.2730712890625	931.1903686523438	-510.1168823242188	-538.6689453125	914.58056640625	-757.63916015625	-671.431396484375	453.7801513671875	-836.3671875	-651.838623046875	594.4227294921875	-837.8973388671875	-1031.405395507812	186.7321319580078	-882.8788452148438	-852.313232421875	311.4277954101562	-871.3438110351562	-945.1707153320312	29.34481811523438	-813.3543090820312	-991.6990356445312	68.27388763427734	-771.0618286132812	-984.6373901367188	75.02806854248047	-890.0526733398438	-1059.73974609375	225.7639923095703	-825.5197143554688	-537.5159301757812	480.9579467773438	-503.3365783691406	-603.2070922851562	732.8197021484375	-450.4182434082031	-577.7031860351562	42.31824111938477	-566.7924194335938	-512.210205078125	357.0542297363281	-523.139892578125	-377.3360900878906	44.21163177490234	-593.3352661132812	-429.7381286621094	40.52088165283203	-639.9015502929688	-477.7863159179688	34.82759857177734	-532.325927734375	-622.4651489257812	37.32206726074219	-621.9102172851562	-811.3706665039062	720.5513305664062	-420.7711486816406	nan	nan	nan	nan	nan	nan	
205	2.04	-778.5054931640625	983.6876831054688	-576.0255737304688	-740.085205078125	972.8027954101562	-746.1575317382812	-735.8021850585938	1047.015991210938	-673.951904296875	-484.0234069824219	1213.359497070312	-602.8395385742188	-737.8234252929688	1160.751342773438	-687.2623291015625	-680.0641479492188	1403.073608398438	-685.5820922851562	-538.0941162109375	1317.178344726562	-625.0364990234375	-756.1455688476562	1265.865112304688	-639.4002685546875	-659.9733276367188	1367.384521484375	-788.6611328125	-558.1400146484375	1372.855834960938	-806.857421875	-564.7901611328125	1256.026733398438	-886.7054443359375	-551.0846557617188	1055.826416015625	-896.6015014648438	-623.7256469726562	1031.750122070312	-853.3261108398438	-401.568603515625	897.5023803710938	-830.2741088867188	-421.9969177246094	864.5191650390625	-891.6697387695312	-506.958984375	966.4693603515625	-900.1835327148438	-300.5769653320312	746.6385498046875	-816.7063598632812	-373.5049438476562	791.115234375	-879.8543090820312	-331.191650390625	823.2185668945312	-841.253662109375	-680.0917358398438	1379.07080078125	-516.66357421875	-720.8291625976562	1327.48291015625	-464.2507019042969	-819.823974609375	1080.81884765625	-454.3434753417969	-788.4002685546875	1069.625732421875	-542.6517333984375	-769.5635375976562	837.3812866210938	-436.1241760253906	-850.7766723632812	851.3380126953125	-411.7554321289062	-827.8460693359375	1012.652954101562	-432.391845703125	-819.630615234375	657.0145874023438	-454.5582885742188	-862.1425170898438	737.6659545898438	-408.1522521972656	-693.3529663085938	1554.76416015625	-602.7584228515625	-488.9418029785156	1604.169311523438	-631.8104858398438	-529.2647094726562	1591.861938476562	-549.0451049804688	-628.360107421875	1564.411987304688	-733.1703491210938	-659.1103515625	916.7275390625	-825.4862670898438	-697.9083251953125	937.1632690429688	-452.8406982421875	-571.0464477539062	932.0618286132812	-505.95068359375	-530.5615844726562	915.9385986328125	-753.3656005859375	-651.9518432617188	453.3444213867188	-832.768310546875	-636.1057739257812	594.3756713867188	-834.2579345703125	-1014.275939941406	194.3616333007812	-883.3612670898438	-833.1414184570312	312.9766235351562	-869.689697265625	-941.41796875	28.32645988464355	-812.933349609375	-984.2398071289062	72.77090454101562	-771.4266967773438	-975.7017211914062	79.3309326171875	-890.108154296875	-1041.067626953125	234.3861389160156	-826.0508422851562	-533.92041015625	480.425048828125	-501.8044738769531	-597.43994140625	732.8547973632812	-447.7374877929688	-577.7432250976562	42.43839645385742	-566.9277954101562	-509.6146545410156	356.397705078125	-522.2510986328125	-377.2624816894531	44.00461196899414	-593.5221557617188	-429.6810302734375	40.28332138061523	-640.0760498046875	-477.7587585449219	34.90550994873047	-532.44287109375	-622.4342041015625	37.34199142456055	-622.0079956054688	-793.6915893554688	720.0811157226562	-415.0655822753906	nan	nan	nan	nan	nan	nan	
206	2.05	-771.227294921875	984.6248779296875	-573.2930297851562	-732.2122192382812	973.1677856445312	-743.3401489257812	-728.1053466796875	1047.800170898438	-670.4827880859375	-476.7875061035156	1214.56689453125	-598.8779907226562	-730.45654296875	1161.666259765625	-683.5306396484375	-673.2073974609375	1404.029174804688	-681.5090942382812	-530.9725952148438	1318.320556640625	-620.9569702148438	-749.232177734375	1266.61376953125	-635.2734375	-652.9048461914062	1368.564697265625	-784.58740234375	-551.0147094726562	1374.315551757812	-802.6373291015625	-557.100830078125	1257.617797851562	-882.5816650390625	-542.3428344726562	1057.603759765625	-893.4899291992188	-615.0184326171875	1033.258544921875	-850.4789428710938	-395.1530151367188	895.8925170898438	-827.6306762695312	-415.164306640625	864.9117431640625	-890.20654296875	-498.6816711425781	967.7816162109375	-897.74853515625	-298.0323181152344	742.0997314453125	-816.5943603515625	-367.9221801757812	790.4910888671875	-879.7859497070312	-325.8778686523438	820.701416015625	-839.43310546875	-673.1602172851562	1379.784301757812	-512.5852661132812	-713.4854125976562	1327.669799804688	-459.8297424316406	-809.7526245117188	1079.855346679688	-448.5408630371094	-779.5314331054688	1069.107299804688	-537.3971557617188	-754.6158447265625	837.3831176757812	-430.9993896484375	-835.6754760742188	849.7704467773438	-405.3421630859375	-816.3129272460938	1011.467956542969	-426.5307312011719	-800.8975219726562	656.0159301757812	-447.9562683105469	-844.4697265625	735.9229736328125	-401.2163696289062	-687.35498046875	1555.545166015625	-599.6936645507812	-482.9886474609375	1605.933349609375	-627.165283203125	-523.9192504882812	1593.576538085938	-544.6876831054688	-621.387451171875	1565.259887695312	-729.602783203125	-650.5726318359375	917.1648559570312	-822.002197265625	-691.2706909179688	937.9356689453125	-449.5942077636719	-564.0834350585938	932.9071655273438	-501.864013671875	-522.5862426757812	917.2119750976562	-749.166015625	-632.0686645507812	453.0810546875	-828.6744384765625	-620.1326904296875	594.4384765625	-830.3629150390625	-996.1083374023438	201.3925170898438	-883.5343627929688	-813.2025146484375	314.3233642578125	-867.6517333984375	-936.3749389648438	27.46126747131348	-811.9431762695312	-975.525146484375	77.36045074462891	-771.5913696289062	-965.3351440429688	83.58554840087891	-889.7918701171875	-1021.448669433594	242.3790130615234	-826.3043212890625	-530.4259643554688	479.9240112304688	-500.276123046875	-591.7243041992188	732.9702758789062	-445.1893005371094	-577.8201904296875	42.54513168334961	-567.0269775390625	-507.1025390625	355.77685546875	-521.4144287109375	-377.2196044921875	43.87172317504883	-593.6600952148438	-429.6489868164062	40.11714553833008	-640.2078247070312	-477.7484741210938	34.96503829956055	-532.5220336914062	-622.4039916992188	37.35524749755859	-622.065185546875	-775.6093139648438	719.7329711914062	-409.1553039550781	nan	nan	nan	nan	nan	nan	
207	2.06	-764.1497192382812	985.4979858398438	-570.7454833984375	-724.460205078125	973.47314453125	-740.6900634765625	-720.5596923828125	1048.526245117188	-667.1282348632812	-469.6754760742188	1215.620361328125	-595.0225219726562	-723.215087890625	1162.579467773438	-679.9010009765625	-666.3776245117188	1404.991333007812	-677.4903564453125	-523.9246215820312	1319.316528320312	-616.9701538085938	-742.443359375	1267.390258789062	-631.1740112304688	-645.8668212890625	1369.732543945312	-780.574462890625	-543.9205932617188	1375.706665039062	-798.4827270507812	-549.4625854492188	1259.117065429688	-878.5166015625	-533.7130737304688	1059.265991210938	-890.4022216796875	-606.478271484375	1034.713989257812	-847.6967163085938	-389.0901794433594	894.1074829101562	-825.045654296875	-408.7402038574219	865.0414428710938	-888.6744995117188	-490.6286315917969	968.9072265625	-895.3047485351562	-296.4119262695312	737.0477294921875	-816.2647094726562	-362.8262329101562	789.6375122070312	-879.6162719726562	-321.0002136230469	817.9711303710938	-837.6981811523438	-666.2265625	1380.443359375	-508.5508422851562	-706.1072998046875	1327.78466796875	-455.4012145996094	-799.5865478515625	1078.833740234375	-442.5609436035156	-770.740234375	1068.505737304688	-531.9971923828125	-739.5064086914062	837.4514770507812	-425.8262329101562	-820.231689453125	848.280029296875	-398.6986083984375	-804.5933837890625	1010.261352539062	-420.4822998046875	-781.8243408203125	655.1559448242188	-441.0439453125	-826.3876953125	734.3231201171875	-393.9720153808594	-681.3416748046875	1556.24853515625	-596.7349243164062	-477.0267639160156	1607.646484375	-622.4942626953125	-518.6192626953125	1595.245361328125	-540.3413696289062	-614.316650390625	1566.03173828125	-726.0942993164062	-642.0578002929688	917.5845336914062	-818.662353515625	-684.8255004882812	938.7077026367188	-446.4426879882812	-557.3587646484375	933.7401123046875	-497.8526000976562	-514.6954345703125	918.4310302734375	-745.0164184570312	-611.8502807617188	453.0315856933594	-824.0582885742188	-603.9771118164062	594.65771484375	-826.1896362304688	-976.9906616210938	207.6014251708984	-883.3929443359375	-792.6132202148438	315.5055541992188	-865.1810913085938	-929.544677734375	26.89192008972168	-810.21044921875	-965.26611328125	81.93685913085938	-771.41796875	-953.2254638671875	87.61740112304688	-888.9608154296875	-1001.090759277344	249.5572662353516	-826.3419189453125	-527.12646484375	479.4217834472656	-498.7393798828125	-586.0895385742188	733.1213989257812	-442.7317199707031	-577.9048461914062	42.62821578979492	-567.0938110351562	-504.7488098144531	355.169189453125	-520.5821533203125	-377.1961059570312	43.78866577148438	-593.7572631835938	-429.6335144042969	40.0034294128418	-640.3020629882812	-477.7446899414062	35.00278854370117	-532.5718994140625	-622.3776245117188	37.36653900146484	-622.0918579101562	-757.1764526367188	719.5357055664062	-403.0675659179688	nan	nan	nan	nan	nan	nan	
